<?xml version="1.0" encoding="UTF-8"?>
<svg id="Layer_1" data-name="Layer 1" xmlns="http://www.w3.org/2000/svg" viewBox="0 0 1000 1000">
  <defs>
    <style>
      .cls-1 {
        fill: #02632e;
      }

      .cls-2 {
        fill: #feb705;
      }
    </style>
  </defs>
  <path class="cls-1" d="M387.31,504.89v-210.07c0-26.21,5.26-48.7,15.15-66.88-15.93-21.83-41.88-33.59-76.84-33.59-61.65,0-95.33,36.53-95.33,100.47v210.07c0,63.93,33.68,100.47,95.33,100.47,34.96,0,60.91-11.76,76.84-33.59-9.89-18.18-15.15-40.67-15.15-66.88ZM358.16,508.89c0,28.54-12.56,39.39-32.54,39.39s-32.54-10.84-32.54-39.39v-218.06c0-28.54,12.56-39.39,32.54-39.39s32.54,10.84,32.54,39.39v218.06Z"/>
  <path class="cls-2" d="M543.34,598.51c-11.99,4.57-26.26,6.85-41.67,6.85-61.65,0-95.33-36.53-95.33-100.47v-210.07c0-63.93,33.68-100.47,95.33-100.47s95.33,36.53,95.33,100.47v210.07c0,27.4-6.28,49.09-17.7,65.64,4.57,7.99,11.99,9.13,23.4,9.13h9.7v57.08h-16.56c-23.4,0-45.09-8.56-52.52-38.24ZM534.2,508.89v-218.06c0-28.54-12.56-39.39-32.54-39.39s-32.54,10.84-32.54,39.39v218.06c0,28.54,12.56,39.39,32.54,39.39s32.54-10.84,32.54-39.39Z"/>
  <path class="cls-1" d="M224.81,724.54v-47.42c0-14.43,7.6-22.68,21.52-22.68s21.52,8.25,21.52,22.68v47.42c0,14.43-7.6,22.68-21.52,22.68s-21.52-8.25-21.52-22.68ZM253.67,725.44v-49.22c0-6.44-2.83-8.89-7.34-8.89s-7.34,2.45-7.34,8.89v49.22c0,6.44,2.84,8.89,7.34,8.89s7.34-2.45,7.34-8.89Z"/>
  <path class="cls-1" d="M277.37,655.73h17.78l13.79,53.99h.26v-53.99h12.63v90.19h-14.56l-17.01-65.84h-.26v65.84h-12.63v-90.19Z"/>
  <path class="cls-1" d="M332.38,655.73h14.17v77.31h23.32v12.88h-37.49v-90.19Z"/>
  <path class="cls-1" d="M376.7,655.73h14.17v90.19h-14.17v-90.19Z"/>
  <path class="cls-1" d="M401.44,655.73h17.78l13.79,53.99h.26v-53.99h12.63v90.19h-14.56l-17.01-65.84h-.26v65.84h-12.63v-90.19Z"/>
  <path class="cls-1" d="M456.45,655.73h38.65v12.89h-24.48v23.84h19.46v12.89h-19.46v27.7h24.48v12.88h-38.65v-90.19Z"/>
  <path class="cls-1" d="M553.72,745.67c-2.71,1.03-5.93,1.55-9.41,1.55-13.92,0-21.52-8.25-21.52-22.68v-47.42c0-14.43,7.6-22.68,21.52-22.68s21.52,8.25,21.52,22.68v47.42c0,6.18-1.42,11.08-3.99,14.82,1.03,1.8,2.71,2.06,5.28,2.06h2.19v12.88h-3.74c-5.28,0-10.18-1.93-11.85-8.63ZM551.66,725.44v-49.22c0-6.44-2.83-8.89-7.34-8.89s-7.34,2.45-7.34,8.89v49.22c0,6.44,2.84,8.89,7.34,8.89s7.34-2.45,7.34-8.89Z"/>
  <path class="cls-1" d="M574.85,724.54v-68.8h14.17v69.84c0,6.44,2.71,8.76,7.22,8.76s7.22-2.32,7.22-8.76v-69.84h13.66v68.8c0,14.43-7.22,22.68-21.13,22.68s-21.13-8.25-21.13-22.68Z"/>
  <path class="cls-1" d="M627.16,655.73h21c14.69,0,21,6.83,21,20.74v5.54c0,9.28-2.96,15.2-9.28,17.78v.26c7.09,2.19,9.41,8.89,9.41,19.07v15.85c0,4.38.13,7.6,1.55,10.95h-14.43c-.77-2.32-1.29-3.74-1.29-11.08v-16.49c0-8.37-2.45-11.08-8.89-11.08h-4.9v38.65h-14.17v-90.19ZM646.48,694.38c5.28,0,8.5-2.32,8.5-9.53v-6.96c0-6.44-2.19-9.28-7.22-9.28h-6.44v25.77h5.15Z"/>
  <path class="cls-1" d="M690.03,655.73h19.2l14.69,90.19h-14.17l-2.58-17.91v.26h-16.11l-2.58,17.65h-13.14l14.69-90.19ZM705.49,716.03l-6.31-44.58h-.26l-6.18,44.58h12.76Z"/>
  <path class="cls-1" d="M730.74,655.73h17.78l13.79,53.99h.26v-53.99h12.63v90.19h-14.56l-17.01-65.84h-.26v65.84h-12.63v-90.19Z"/>
  <path class="cls-2" d="M628.48,794.52v-24.31c0-6.98,3.62-11.12,10.48-11.12s10.48,4.14,10.48,11.12v4.79h-6.73v-5.24c0-2.97-1.42-4.2-3.56-4.2s-3.56,1.23-3.56,4.2v25.28c0,2.97,1.42,4.14,3.56,4.14s3.56-1.16,3.56-4.14v-6.92h6.73v6.4c0,6.98-3.62,11.12-10.48,11.12s-10.48-4.14-10.48-11.12Z"/>
  <path class="cls-2" d="M653.31,794.26v-23.8c0-7.24,3.82-11.38,10.8-11.38s10.8,4.14,10.8,11.38v23.8c0,7.24-3.82,11.38-10.8,11.38s-10.8-4.14-10.8-11.38ZM667.79,794.71v-24.7c0-3.23-1.42-4.46-3.69-4.46s-3.69,1.23-3.69,4.46v24.7c0,3.23,1.42,4.46,3.69,4.46s3.69-1.23,3.69-4.46Z"/>
  <path class="cls-2" d="M679.43,794.26v-34.53h7.11v35.05c0,3.23,1.36,4.4,3.62,4.4s3.62-1.16,3.62-4.4v-35.05h6.85v34.53c0,7.24-3.62,11.38-10.61,11.38s-10.61-4.14-10.61-11.38Z"/>
  <path class="cls-2" d="M705.68,759.73h10.54c7.37,0,10.54,3.43,10.54,10.41v2.78c0,4.66-1.49,7.63-4.66,8.92v.13c3.56,1.1,4.72,4.46,4.72,9.57v7.95c0,2.2.06,3.82.78,5.5h-7.24c-.39-1.16-.65-1.88-.65-5.56v-8.28c0-4.2-1.23-5.56-4.46-5.56h-2.46v19.4h-7.11v-45.27ZM715.38,779.13c2.65,0,4.27-1.16,4.27-4.79v-3.49c0-3.23-1.1-4.66-3.62-4.66h-3.23v12.93h2.59Z"/>
  <path class="cls-2" d="M730.51,794.26v-2.59h6.72v3.1c0,3.23,1.42,4.4,3.69,4.4s3.69-1.16,3.69-4.53c0-3.75-1.42-6.14-6.08-10.22-5.95-5.24-7.89-8.92-7.89-14.1,0-7.11,3.69-11.25,10.61-11.25s10.35,4.14,10.35,11.38v1.88h-6.73v-2.33c0-3.23-1.29-4.46-3.56-4.46s-3.56,1.23-3.56,4.33c0,3.3,1.49,5.69,6.14,9.76,5.95,5.24,7.82,8.86,7.82,14.49,0,7.37-3.75,11.51-10.73,11.51s-10.48-4.14-10.48-11.38Z"/>
  <path class="cls-2" d="M755.79,759.73h19.4v6.47h-12.29v11.96h9.76v6.47h-9.76v13.9h12.29v6.47h-19.4v-45.27Z"/>
  <path class="cls-1" d="M769.71,334.78v-42.24c0-61.65-31.97-98.18-92.47-98.18-35.08,0-60.55,12.3-75.77,34.64,9.52,18,14.56,40.13,14.56,65.83v210.07c0,20.89-3.33,51.43-9.93,67.63h13.69v16.89c14.7,10.39,33.9,15.95,57.45,15.95,60.51,0,92.47-36.53,92.47-98.18v-56.51h-59.37v61.08c0,26.26-12.56,36.53-31.4,36.53s-31.4-10.27-31.4-36.53v-223.19c0-26.26,12.56-37.1,31.4-37.1s31.4,10.84,31.4,37.1v46.24h59.37Z"/>
</svg>